<?xml version="1.0" encoding="UTF-8" standalone="no"?>
<!DOCTYPE svg PUBLIC "-//W3C//DTD SVG 1.1//EN" "http://www.w3.org/Graphics/SVG/1.1/DTD/svg11.dtd">
<svg width="100%" height="100%" viewBox="0 0 421 421" version="1.1" xmlns="http://www.w3.org/2000/svg" xmlns:xlink="http://www.w3.org/1999/xlink" xml:space="preserve" xmlns:serif="http://www.serif.com/" style="fill-rule:evenodd;clip-rule:evenodd;stroke-linecap:round;stroke-miterlimit:10;">
    <g id="line">
        <path d="M0,7L0,-7" style="fill:none;fill-rule:nonzero;stroke:black;stroke-width:1px;"/>
    </g>
    <rect x="320.4" y="318" width="57.2" height="50.4" style="fill:none;stroke:black;stroke-width:0.9px;stroke-linejoin:round;stroke-miterlimit:4;"/>
    <g transform="matrix(1,0,0,1,341.614,337.39)">
        <g id="label">
            <text x="0px" y="0px" style="font-family:'ArialMT', 'Arial', sans-serif;font-size:3.5px;">Adafruit</text>
        </g>
    </g>
    <g transform="matrix(1,0,0,1,342.88,340.89)">
        <g id="label_1_">
            <text x="0px" y="0px" style="font-family:'ArialMT', 'Arial', sans-serif;font-size:3.5px;">OLED</text>
        </g>
    </g>
    <g transform="matrix(1,0,0,1,337.433,344.39)">
        <g id="label_2_">
            <text x="0px" y="0px" style="font-family:'ArialMT', 'Arial', sans-serif;font-size:3.5px;">Monochrome</text>
        </g>
    </g>
    <g transform="matrix(1,0,0,1,341.904,347.89)">
        <g id="label_3_">
            <text x="0px" y="0px" style="font-family:'ArialMT', 'Arial', sans-serif;font-size:3.5px;">128x32</text>
        </g>
    </g>
    <g transform="matrix(1,0,0,1,344.922,351.39)">
        <g id="label_4_">
            <text x="0px" y="0px" style="font-family:'ArialMT', 'Arial', sans-serif;font-size:3.5px;">I2C</text>
        </g>
    </g>
    <path d="M391.6,332.4L377.5,332.4" style="fill:none;fill-rule:nonzero;stroke:black;stroke-width:1px;stroke-linejoin:round;stroke-miterlimit:4;"/>
    <g transform="matrix(1,0,0,1,364.11,334.09)">
        <g id="label8">
            <text x="0px" y="0px" style="font-family:'ArialMT', 'Arial', sans-serif;font-size:3.5px;">RESET</text>
        </g>
    </g>
    <path d="M320.3,332.4L305.9,332.4" style="fill:none;fill-rule:nonzero;stroke:black;stroke-width:1px;stroke-linejoin:round;stroke-miterlimit:4;"/>
    <g transform="matrix(1,0,0,1,322.119,333.089)">
        <g id="label10">
            <text x="0px" y="0px" style="font-family:'ArialMT', 'Arial', sans-serif;font-size:3.5px;">SDA</text>
        </g>
    </g>
    <path d="M320.3,339.6L305.9,339.6" style="fill:none;fill-rule:nonzero;stroke:black;stroke-width:1px;stroke-linejoin:round;stroke-miterlimit:4;"/>
    <g transform="matrix(1,0,0,1,322.506,340.29)">
        <g id="label9">
            <text x="0px" y="0px" style="font-family:'ArialMT', 'Arial', sans-serif;font-size:3.5px;">SCL</text>
        </g>
    </g>
    <path d="M348.7,303.9L348.7,318" style="fill:none;fill-rule:nonzero;stroke:black;stroke-width:1px;stroke-linejoin:round;stroke-miterlimit:4;"/>
    <g transform="matrix(7.04481e-16,-1,1,7.04481e-16,350.311,325.428)">
        <g>
            <g>
                <g>
                    <g>
                        <g>
                            <g>
                                <g>
                                    <g>
                                        <text id="label5_10_" x="0px" y="0px" style="font-family:'ArialMT', 'Arial', sans-serif;font-size:3.5px;">VIN</text>
                                    </g>
                                </g>
                            </g>
                        </g>
                    </g>
                </g>
            </g>
        </g>
    </g>
    <path d="M341.5,303.9L341.5,318" style="fill:none;fill-rule:nonzero;stroke:black;stroke-width:1px;stroke-linejoin:round;stroke-miterlimit:4;"/>
    <g transform="matrix(7.04481e-16,-1,1,7.04481e-16,343.109,326.793)">
        <g>
            <g>
                <g>
                    <g>
                        <g>
                            <g>
                                <g>
                                    <g>
                                        <text id="label6_10_" x="0px" y="0px" style="font-family:'ArialMT', 'Arial', sans-serif;font-size:3.5px;">3.3V</text>
                                    </g>
                                </g>
                            </g>
                        </g>
                    </g>
                </g>
            </g>
        </g>
    </g>
    <path d="M348.7,368.4L348.7,379.2" style="fill:none;fill-rule:nonzero;stroke:black;stroke-width:1px;stroke-linejoin:round;stroke-miterlimit:4;"/>
    <g transform="matrix(7.04481e-16,-1,1,7.04481e-16,350.311,366.793)">
        <g>
            <g>
                <g>
                    <g>
                        <g>
                            <g>
                                <g>
                                    <g>
                                        <text id="label7_10_" x="0px" y="0px" style="font-family:'ArialMT', 'Arial', sans-serif;font-size:3.5px;">GND</text>
                                    </g>
                                </g>
                            </g>
                        </g>
                    </g>
                </g>
            </g>
        </g>
    </g>
    <rect x="298.8" y="195.6" width="57.2" height="50.4" style="fill:none;stroke:black;stroke-width:1px;stroke-linejoin:round;stroke-miterlimit:4;"/>
    <g transform="matrix(1,0,0,1,319.236,211.99)">
        <g id="label_5_">
            <text x="0px" y="0px" style="font-family:'ArialMT', 'Arial', sans-serif;font-size:3.5px;">Adafruit</text>
        </g>
    </g>
    <g transform="matrix(1,0,0,1,316.901,215.49)">
        <g id="label_6_">
            <text x="0px" y="0px" style="font-family:'ArialMT', 'Arial', sans-serif;font-size:3.5px;">TCS34725</text>
        </g>
    </g>
    <g transform="matrix(1,0,0,1,321.476,218.99)">
        <g id="label_7_">
            <text x="0px" y="0px" style="font-family:'ArialMT', 'Arial', sans-serif;font-size:3.5px;">RGB</text>
        </g>
    </g>
    <g transform="matrix(1,0,0,1,321.086,222.49)">
        <g id="label_8_">
            <text x="0px" y="0px" style="font-family:'ArialMT', 'Arial', sans-serif;font-size:3.5px;">Color</text>
        </g>
    </g>
    <g transform="matrix(1,0,0,1,319.723,225.99)">
        <g id="label_9_">
            <text x="0px" y="0px" style="font-family:'ArialMT', 'Arial', sans-serif;font-size:3.5px;">Sensor</text>
        </g>
    </g>
    <path d="M370,210L355.9,210" style="fill:none;fill-rule:nonzero;stroke:black;stroke-width:1px;stroke-linejoin:round;stroke-miterlimit:4;"/>
    <g transform="matrix(1,0,0,1,339.509,210.689)">
        <g id="label14">
            <text x="0px" y="0px" style="font-family:'ArialMT', 'Arial', sans-serif;font-size:3.5px;">LED_EN</text>
        </g>
    </g>
    <path d="M370,217.2L355.9,217.2" style="fill:none;fill-rule:nonzero;stroke:black;stroke-width:1px;stroke-linejoin:round;stroke-miterlimit:4;"/>
    <g transform="matrix(1,0,0,1,347.509,217.889)">
        <g id="label13">
            <text x="0px" y="0px" style="font-family:'ArialMT', 'Arial', sans-serif;font-size:3.5px;">INT</text>
        </g>
    </g>
    <path d="M298.7,210L284.3,210" style="fill:none;fill-rule:nonzero;stroke:black;stroke-width:1px;stroke-linejoin:round;stroke-miterlimit:4;"/>
    <path d="M298.7,217.2L284.3,217.2" style="fill:none;fill-rule:nonzero;stroke:black;stroke-width:1px;stroke-linejoin:round;stroke-miterlimit:4;"/>
    <path d="M327.1,181.5L327.1,195.6" style="fill:none;fill-rule:nonzero;stroke:black;stroke-width:1px;stroke-linejoin:round;stroke-miterlimit:4;"/>
    <path d="M319.9,181.5L319.9,195.6" style="fill:none;fill-rule:nonzero;stroke:black;stroke-width:1px;stroke-linejoin:round;stroke-miterlimit:4;"/>
    <path d="M327.1,246L327.1,260" style="fill:none;fill-rule:nonzero;stroke:black;stroke-width:1px;stroke-linejoin:round;stroke-miterlimit:4;"/>
    <g transform="matrix(1,0,0,1,300.123,211.087)">
        <g id="label10_1_">
            <text x="0px" y="0px" style="font-family:'ArialMT', 'Arial', sans-serif;font-size:3.5px;">SDA</text>
        </g>
    </g>
    <g transform="matrix(1,0,0,1,300.511,218.287)">
        <g id="label9_1_">
            <text x="0px" y="0px" style="font-family:'ArialMT', 'Arial', sans-serif;font-size:3.5px;">SCL</text>
        </g>
    </g>
    <g transform="matrix(7.04481e-16,-1,1,7.04481e-16,328.316,203.423)">
        <g>
            <g>
                <g>
                    <g>
                        <g>
                            <g>
                                <g>
                                    <g>
                                        <g>
                                            <g>
                                                <text id="label5_9_" x="0px" y="0px" style="font-family:'ArialMT', 'Arial', sans-serif;font-size:3.5px;">VIN</text>
                                            </g>
                                        </g>
                                    </g>
                                </g>
                            </g>
                        </g>
                    </g>
                </g>
            </g>
        </g>
    </g>
    <g transform="matrix(7.04481e-16,-1,1,7.04481e-16,321.114,204.788)">
        <g>
            <g>
                <g>
                    <g>
                        <g>
                            <g>
                                <g>
                                    <g>
                                        <g>
                                            <g>
                                                <text id="label6_9_" x="0px" y="0px" style="font-family:'ArialMT', 'Arial', sans-serif;font-size:3.5px;">3.3V</text>
                                            </g>
                                        </g>
                                    </g>
                                </g>
                            </g>
                        </g>
                    </g>
                </g>
            </g>
        </g>
    </g>
    <g transform="matrix(7.04481e-16,-1,1,7.04481e-16,328.316,244.788)">
        <g>
            <g>
                <g>
                    <g>
                        <g>
                            <g>
                                <g>
                                    <g>
                                        <g>
                                            <g>
                                                <text id="label7_9_" x="0px" y="0px" style="font-family:'ArialMT', 'Arial', sans-serif;font-size:3.5px;">GND</text>
                                            </g>
                                        </g>
                                    </g>
                                </g>
                            </g>
                        </g>
                    </g>
                </g>
            </g>
        </g>
    </g>
    <rect id="connector44terminal" x="211.7" y="165.7" width="1.6" height="1.6" style="fill:none;"/>
    <rect id="connector45terminal" x="211.7" y="193.8" width="1.6" height="1.6" style="fill:none;"/>
    <rect id="connector42terminal" x="211.7" y="179.8" width="1.6" height="1.6" style="fill:none;"/>
    <g transform="matrix(1,0,0,1,385.418,179.097)">
        <g>
            <g id="schematic_3_">
                <path id="connector0pin" d="M-58.3,95.6L-58.3,88.4" style="fill:none;fill-rule:nonzero;stroke:black;stroke-width:1px;stroke-linejoin:round;stroke-miterlimit:4;"/>
                <path id="path4098" d="M-65,95.7L-51.6,95.7" style="fill:none;fill-rule:nonzero;stroke:black;stroke-width:1px;stroke-linejoin:round;stroke-miterlimit:4;"/>
                <path id="path4100" d="M-62.8,98.5L-53.9,98.5" style="fill:none;fill-rule:nonzero;stroke:black;stroke-width:1px;stroke-linejoin:round;stroke-miterlimit:4;"/>
                <path id="path4102" d="M-56.1,101.2L-60.6,101.2" style="fill:none;fill-rule:nonzero;stroke:black;stroke-width:1px;stroke-linejoin:round;stroke-miterlimit:4;"/>
            </g>
        </g>
    </g>
    <g transform="matrix(1,0,0,1,132.084,558.83)">
        <g>
            <g id="schematic_4_">
                <path id="connector0pin_1_" d="M-11.6,-172.5L-11.6,-179.7" style="fill:none;fill-rule:nonzero;stroke:black;stroke-width:1px;stroke-linejoin:round;stroke-miterlimit:4;"/>
                <path id="path4098_1_" d="M-18.3,-172.4L-4.9,-172.4" style="fill:none;fill-rule:nonzero;stroke:black;stroke-width:1px;stroke-linejoin:round;stroke-miterlimit:4;"/>
                <path id="path4100_1_" d="M-16.1,-169.6L-7.2,-169.6" style="fill:none;fill-rule:nonzero;stroke:black;stroke-width:1px;stroke-linejoin:round;stroke-miterlimit:4;"/>
                <path id="path4102_1_" d="M-9.4,-166.9L-13.9,-166.9" style="fill:none;fill-rule:nonzero;stroke:black;stroke-width:1px;stroke-linejoin:round;stroke-miterlimit:4;"/>
            </g>
        </g>
    </g>
    <path id="connector0pin_2_" d="M327.1,34.8L327.1,42" style="fill:none;fill-rule:nonzero;stroke:black;stroke-width:1px;stroke-linejoin:round;stroke-miterlimit:4;"/>
    <path d="M320.4,34.6L333.9,34.6" style="fill:none;fill-rule:nonzero;stroke:black;stroke-width:1px;stroke-linejoin:round;stroke-miterlimit:4;"/>
    <g transform="matrix(1,0,0,1,321.428,33.0004)">
        <g id="label_11_">
            <text x="0px" y="0px" style="font-family:'ArialMT', 'Arial', sans-serif;font-size:5.24px;">3.3V</text>
        </g>
    </g>
    <path id="connector0pin_3_" d="M348.7,289.2L348.7,296.4" style="fill:none;fill-rule:nonzero;stroke:black;stroke-width:1px;stroke-linejoin:round;stroke-miterlimit:4;"/>
    <path d="M342,289L355.5,289" style="fill:none;fill-rule:nonzero;stroke:black;stroke-width:1px;stroke-linejoin:round;stroke-miterlimit:4;"/>
    <g transform="matrix(1,0,0,1,343.028,287.404)">
        <g>
            <text id="label_31_" x="0px" y="0px" style="font-family:'ArialMT', 'Arial', sans-serif;font-size:5.24px;">3.3V</text>
        </g>
    </g>
    <g>
        <path d="M212.1,209.9L233.5,210" style="fill:none;fill-rule:nonzero;stroke:black;stroke-width:1px;stroke-linejoin:round;stroke-miterlimit:4;"/>
    </g>
    <g>
        <path d="M269.5,194.6L269.5,217.2" style="fill:none;fill-rule:nonzero;stroke:black;stroke-width:1px;stroke-linejoin:round;stroke-miterlimit:4;"/>
    </g>
    <g>
        <path d="M269.5,339.6L269.5,217.2" style="fill:none;fill-rule:nonzero;stroke:black;stroke-width:1px;stroke-linejoin:round;stroke-miterlimit:4;"/>
    </g>
    <circle cx="269.5" cy="217.2" r="1.4"/>
    <g>
        <path d="M305.5,339.6L269.5,339.6" style="fill:none;fill-rule:nonzero;stroke:black;stroke-width:1px;stroke-linejoin:round;stroke-miterlimit:4;"/>
    </g>
    <g>
        <path d="M233.5,210L283.9,210" style="fill:none;fill-rule:nonzero;stroke:black;stroke-width:1px;stroke-linejoin:round;stroke-miterlimit:4;"/>
    </g>
    <g>
        <path d="M305.5,332.4L233.5,332.4" style="fill:none;fill-rule:nonzero;stroke:black;stroke-width:1px;stroke-linejoin:round;stroke-miterlimit:4;"/>
    </g>
    <g>
        <path d="M233.5,332.4L233.5,210" style="fill:none;fill-rule:nonzero;stroke:black;stroke-width:1px;stroke-linejoin:round;stroke-miterlimit:4;"/>
    </g>
    <circle cx="233.5" cy="210" r="1.4"/>
    <g>
        <path d="M269.5,217.2L283.9,217.2" style="fill:none;fill-rule:nonzero;stroke:black;stroke-width:1px;stroke-linejoin:round;stroke-miterlimit:4;"/>
    </g>
    <g>
        <path d="M391.9,210L370.3,210" style="fill:none;fill-rule:nonzero;stroke:black;stroke-width:1px;stroke-linejoin:round;stroke-miterlimit:4;"/>
    </g>
    <g>
        <path d="M391.9,260.4L391.9,210" style="fill:none;fill-rule:nonzero;stroke:black;stroke-width:1px;stroke-linejoin:round;stroke-miterlimit:4;"/>
    </g>
    <g>
        <path d="M327.1,260.4L391.9,260.4" style="fill:none;fill-rule:nonzero;stroke:black;stroke-width:1px;stroke-linejoin:round;stroke-miterlimit:4;"/>
    </g>
    <circle cx="327.1" cy="260.4" r="1.4"/>
    <g>
        <path d="M327.1,260.4L327.1,267.6" style="fill:none;fill-rule:nonzero;stroke:black;stroke-width:1px;stroke-linejoin:round;stroke-miterlimit:4;"/>
    </g>
    <circle cx="327.1" cy="260.4" r="1.4"/>
    <g>
        <path d="M348.7,379.2L120.5,379.2" style="fill:none;fill-rule:nonzero;stroke:black;stroke-width:1px;stroke-linejoin:round;stroke-miterlimit:4;"/>
    </g>
    <circle cx="120.5" cy="379.2" r="1.4" style="fill:none;stroke:black;stroke-width:1px;stroke-linejoin:round;stroke-miterlimit:4;"/>
    <g>
        <path d="M327.1,181.5L327.1,42" style="fill:none;fill-rule:nonzero;stroke:black;stroke-width:1px;stroke-linejoin:round;stroke-miterlimit:4;"/>
    </g>
    <circle cx="327.1" cy="42" r="1.4"/>
    <g>
        <path d="M327.1,42.1L86.9,42.1" style="fill:none;fill-rule:nonzero;stroke:black;stroke-width:1px;stroke-linejoin:round;stroke-miterlimit:4;"/>
    </g>
    <circle cx="327.1" cy="42" r="1.4"/>
    <g>
        <path d="M348.7,296.4L348.7,303.6" style="fill:none;fill-rule:nonzero;stroke:black;stroke-width:1px;stroke-linejoin:round;stroke-miterlimit:4;"/>
    </g>
    <g>
        <path d="M120.2,379.2L120.9,311" style="fill:none;fill-rule:nonzero;stroke:black;stroke-width:1px;stroke-linejoin:round;stroke-miterlimit:4;"/>
    </g>
    <circle cx="120.5" cy="379.2" r="1.4"/>
    <path d="M269.5,194.6L211.7,194.6" style="fill:none;fill-rule:nonzero;stroke:black;stroke-width:1px;stroke-linejoin:round;stroke-miterlimit:4;"/>
    <path d="M86.9,53.8L86.9,42.1" style="fill:none;fill-rule:nonzero;stroke:black;stroke-width:1px;stroke-linejoin:round;stroke-miterlimit:4;"/>
    <g>
        <g id="line1" serif:id="line" transform="matrix(1,0,0,-1,140.894,61.3948)">
            <path d="M0,7L0,-7" style="fill:none;fill-rule:nonzero;stroke:black;stroke-width:1px;"/>
        </g>
        <rect id="rect11_1_" x="43.6" y="68.3" width="154.2" height="229.9" style="fill:none;stroke:black;stroke-width:1px;stroke-linejoin:round;stroke-miterlimit:4;"/>
        <g id="label_12_" transform="matrix(1,0,0,1,100.224,176.349)">
            <text x="0px" y="0px" style="font-family:'ArialMT', 'Arial', sans-serif;font-size:11.866px;">Arduino</text>
        </g>
        <g id="text14_1_" transform="matrix(1,0,0,1,99.5673,190.364)">
            <text x="0px" y="0px" style="font-family:'ArialMT', 'Arial', sans-serif;font-size:9.493px;">MKR Zero</text>
        </g>
        <g transform="matrix(1,0,0,1,178.92,150.53)">
            <g id="label46_1_">
                <text x="0px" y="0px" style="font-family:'ArialMT', 'Arial', sans-serif;font-size:5.24px;">Reset</text>
            </g>
        </g>
        <g transform="matrix(1,0,0,1,47.0721,89.1744)">
            <g id="label54_1_">
                <text x="0px" y="0px" style="font-family:'ArialMT', 'Arial', sans-serif;font-size:5.24px;">AREF</text>
            </g>
        </g>
        <g transform="matrix(1,0,0,1,47.0643,104.513)">
            <g id="label55_1_">
                <text x="0px" y="0px" style="font-family:'ArialMT', 'Arial', sans-serif;font-size:5.24px;">DAC0/A0</text>
            </g>
        </g>
        <g transform="matrix(1,0,0,1,47.0721,119.852)">
            <g id="label56_1_">
                <text x="0px" y="0px" style="font-family:'ArialMT', 'Arial', sans-serif;font-size:5.24px;">A1</text>
            </g>
        </g>
        <g transform="matrix(1,0,0,1,47.0721,135.191)">
            <g id="label57_1_">
                <text x="0px" y="0px" style="font-family:'ArialMT', 'Arial', sans-serif;font-size:5.24px;">A2</text>
            </g>
        </g>
        <g transform="matrix(1,0,0,1,47.0721,150.53)">
            <g id="label58_1_">
                <text x="0px" y="0px" style="font-family:'ArialMT', 'Arial', sans-serif;font-size:5.24px;">A3</text>
            </g>
        </g>
        <g transform="matrix(1,0,0,1,47.0721,165.869)">
            <g id="label59_1_">
                <text x="0px" y="0px" style="font-family:'ArialMT', 'Arial', sans-serif;font-size:5.24px;">A4</text>
            </g>
        </g>
        <g transform="matrix(1,0,0,1,47.0721,181.207)">
            <g id="label60_1_">
                <text x="0px" y="0px" style="font-family:'ArialMT', 'Arial', sans-serif;font-size:5.24px;">A5</text>
            </g>
        </g>
        <g transform="matrix(1,0,0,1,47.0721,196.546)">
            <g id="label61_1_">
                <text x="0px" y="0px" style="font-family:'ArialMT', 'Arial', sans-serif;font-size:5.24px;">A6</text>
            </g>
        </g>
        <g transform="matrix(1,0,0,1,174.261,181.208)">
            <g id="label35_1_">
                <text x="0px" y="0px" style="font-family:'ArialMT', 'Arial', sans-serif;font-size:5.24px;">D13/RX</text>
            </g>
        </g>
        <g transform="matrix(1,0,0,1,174.845,165.869)">
            <g id="label34_1_">
                <text x="0px" y="0px" style="font-family:'ArialMT', 'Arial', sans-serif;font-size:5.24px;">D14/TX</text>
            </g>
        </g>
        <g transform="matrix(1,0,0,1,171.537,196.547)">
            <g id="label33_1_">
                <text x="0px" y="0px" style="font-family:'ArialMT', 'Arial', sans-serif;font-size:5.24px;">D12/SCL</text>
            </g>
        </g>
        <g transform="matrix(1,0,0,1,171.145,211.885)">
            <g id="label32_1_">
                <text x="0px" y="0px" style="font-family:'ArialMT', 'Arial', sans-serif;font-size:5.24px;">D1<tspan x="6.31px 9.224px " y="0px 0px ">1/</tspan>SDA</text>
            </g>
        </g>
        <g transform="matrix(1,0,0,1,172.149,227.224)">
            <g id="label31_1_">
                <text x="0px" y="0px" style="font-family:'ArialMT', 'Arial', sans-serif;font-size:5.24px;">D10/SDI</text>
            </g>
        </g>
        <g transform="matrix(1,0,0,1,173.68,242.563)">
            <g id="label30_1_">
                <text x="0px" y="0px" style="font-family:'ArialMT', 'Arial', sans-serif;font-size:5.24px;">D9/SCK</text>
            </g>
        </g>
        <g transform="matrix(1,0,0,1,174.063,257.902)">
            <g id="label29_1_">
                <text x="0px" y="0px" style="font-family:'ArialMT', 'Arial', sans-serif;font-size:5.24px;">D8/SDO</text>
            </g>
        </g>
        <g id="label28_1_" transform="matrix(1,0,0,1,185.911,273.24)">
            <text x="0px" y="0px" style="font-family:'ArialMT', 'Arial', sans-serif;font-size:5.24px;">D7</text>
        </g>
        <g id="label27_1_" transform="matrix(1,0,0,1,185.911,288.579)">
            <text x="0px" y="0px" style="font-family:'ArialMT', 'Arial', sans-serif;font-size:5.24px;">D6</text>
        </g>
        <g transform="matrix(1,0,0,1,47.0643,288.579)">
            <g id="label26_1_">
                <text x="0px" y="0px" style="font-family:'ArialMT', 'Arial', sans-serif;font-size:5.24px;">D5 PWM</text>
            </g>
        </g>
        <g transform="matrix(1,0,0,1,47.0641,273.241)">
            <g id="label25_1_">
                <text x="0px" y="0px" style="font-family:'ArialMT', 'Arial', sans-serif;font-size:5.24px;">D4 PWM</text>
            </g>
        </g>
        <g id="label24_1_" transform="matrix(1,0,0,1,47.0643,257.902)">
            <text x="0px" y="0px" style="font-family:'ArialMT', 'Arial', sans-serif;font-size:5.24px;">D3 PWM</text>
        </g>
        <g id="label51_1_" transform="matrix(1,0,0,1,47.0641,242.563)">
            <text x="0px" y="0px" style="font-family:'ArialMT', 'Arial', sans-serif;font-size:5.24px;">D2 PWM</text>
        </g>
        <g id="label52_3_" transform="matrix(1,0,0,1,47.0643,227.224)">
            <text x="0px" y="0px" style="font-family:'ArialMT', 'Arial', sans-serif;font-size:5.24px;">D1 PWM</text>
        </g>
        <g id="label52_2_" transform="matrix(1,0,0,1,47.0643,211.885)">
            <text x="0px" y="0px" style="font-family:'ArialMT', 'Arial', sans-serif;font-size:5.24px;">D0 PWM</text>
        </g>
        <g transform="matrix(1,0,0,1,79.7216,75.8282)">
            <g id="label22_1_">
                <text x="0px" y="0px" style="font-family:'ArialMT', 'Arial', sans-serif;font-size:5.24px;">VCC</text>
            </g>
        </g>
        <g id="connector37terminal_1_" transform="matrix(1,0,0,1,0.205625,0)">
            <path d="M112.9,53.5L114.5,53.5L112.9,53.5Z" style="fill:none;fill-rule:nonzero;"/>
        </g>
        <g transform="matrix(1,0,0,1,109.299,75.8282)">
            <g id="label37_1_">
                <text x="0px" y="0px" style="font-family:'ArialMT', 'Arial', sans-serif;font-size:5.24px;">VIN</text>
            </g>
        </g>
        <g id="connector63terminal_1_" transform="matrix(1,0,0,1,0.205625,0)">
            <path d="M140.9,53.5L142.5,53.5L140.9,53.5Z" style="fill:none;fill-rule:nonzero;"/>
        </g>
        <g transform="matrix(1,0,0,1,138.492,75.8282)">
            <g id="label63_1_">
                <text x="0px" y="0px" style="font-family:'ArialMT', 'Arial', sans-serif;font-size:5.24px;">5V</text>
            </g>
        </g>
        <g transform="matrix(1,0,0,1,113.396,292.633)">
            <g id="label23_1_">
                <text x="0px" y="0px" style="font-family:'ArialMT', 'Arial', sans-serif;font-size:5.24px;">GND</text>
            </g>
        </g>
        <g id="connector43terminal_1_" transform="matrix(1,0,0,1,0.205625,0)">
            <path d="M84.9,53.5L86.5,53.5L84.9,53.5Z" style="fill:none;fill-rule:nonzero;"/>
        </g>
        <g id="connector50terminal_1_" transform="matrix(1,0,0,1,0.205625,0)">
            <path d="M84.9,53.5L86.5,53.5L84.9,53.5Z" style="fill:none;fill-rule:nonzero;"/>
        </g>
        <g id="line2" serif:id="line" transform="matrix(1,0,0,-1,120.844,305.587)">
            <path d="M0,7L0,-7" style="fill:none;fill-rule:nonzero;stroke:black;stroke-width:1px;"/>
        </g>
        <g id="line3" serif:id="line" transform="matrix(1,0,0,-1,114.979,61.3948)">
            <path d="M0,7L0,-7" style="fill:none;fill-rule:nonzero;stroke:black;stroke-width:1px;"/>
        </g>
        <g id="line4" serif:id="line" transform="matrix(1,0,0,-1,86.9486,61.1857)">
            <path d="M0,7L0,-7" style="fill:none;fill-rule:nonzero;stroke:black;stroke-width:1px;"/>
        </g>
        <g id="line5" serif:id="line" transform="matrix(6.12323e-17,1,1,-6.12323e-17,204.372,148.609)">
            <path d="M0,7L0,-7" style="fill:none;fill-rule:nonzero;stroke:black;stroke-width:1px;"/>
        </g>
        <g id="line6" serif:id="line" transform="matrix(6.12323e-17,1,1,-6.12323e-17,204.872,163.976)">
            <path d="M0,7L0,-7" style="fill:none;fill-rule:nonzero;stroke:black;stroke-width:1px;"/>
        </g>
        <g id="line7" serif:id="line" transform="matrix(6.12323e-17,1,1,-6.12323e-17,204.872,179.344)">
            <path d="M0,7L0,-7" style="fill:none;fill-rule:nonzero;stroke:black;stroke-width:1px;"/>
        </g>
        <g id="line8" serif:id="line" transform="matrix(6.12323e-17,1,1,-6.12323e-17,204.872,194.711)">
            <path d="M0,7L0,-7" style="fill:none;fill-rule:nonzero;stroke:black;stroke-width:1px;"/>
        </g>
        <g id="line9" serif:id="line" transform="matrix(6.12323e-17,1,1,-6.12323e-17,204.872,210.079)">
            <path d="M0,7L0,-7" style="fill:none;fill-rule:nonzero;stroke:black;stroke-width:1px;"/>
        </g>
        <g id="line10" serif:id="line" transform="matrix(6.12323e-17,1,1,-6.12323e-17,204.872,225.446)">
            <path d="M0,7L0,-7" style="fill:none;fill-rule:nonzero;stroke:black;stroke-width:1px;"/>
        </g>
        <g id="line11" serif:id="line" transform="matrix(6.12323e-17,1,1,-6.12323e-17,204.872,240.814)">
            <path d="M0,7L0,-7" style="fill:none;fill-rule:nonzero;stroke:black;stroke-width:1px;"/>
        </g>
        <g id="line12" serif:id="line" transform="matrix(6.12323e-17,1,1,-6.12323e-17,204.872,256.181)">
            <path d="M0,7L0,-7" style="fill:none;fill-rule:nonzero;stroke:black;stroke-width:1px;"/>
        </g>
        <g id="line13" serif:id="line" transform="matrix(6.12323e-17,1,1,-6.12323e-17,204.872,271.549)">
            <path d="M0,7L0,-7" style="fill:none;fill-rule:nonzero;stroke:black;stroke-width:1px;"/>
        </g>
        <g id="line14" serif:id="line" transform="matrix(6.12323e-17,1,1,-6.12323e-17,204.872,286.916)">
            <path d="M0,7L0,-7" style="fill:none;fill-rule:nonzero;stroke:black;stroke-width:1px;"/>
        </g>
        <g id="line15" serif:id="line" transform="matrix(6.12323e-17,1,1,-6.12323e-17,35.073,147.933)">
            <path d="M0,7L0,-7" style="fill:none;fill-rule:nonzero;stroke:black;stroke-width:1px;"/>
        </g>
        <g id="line16" serif:id="line" transform="matrix(6.12323e-17,1,1,-6.12323e-17,35.573,163.3)">
            <path d="M0,7L0,-7" style="fill:none;fill-rule:nonzero;stroke:black;stroke-width:1px;"/>
        </g>
        <g id="line17" serif:id="line" transform="matrix(6.12323e-17,1,1,-6.12323e-17,35.573,178.667)">
            <path d="M0,7L0,-7" style="fill:none;fill-rule:nonzero;stroke:black;stroke-width:1px;"/>
        </g>
        <g id="line18" serif:id="line" transform="matrix(6.12323e-17,1,1,-6.12323e-17,35.573,194.035)">
            <path d="M0,7L0,-7" style="fill:none;fill-rule:nonzero;stroke:black;stroke-width:1px;"/>
        </g>
        <g id="line19" serif:id="line" transform="matrix(6.12323e-17,1,1,-6.12323e-17,35.073,87.1879)">
            <path d="M0,7L0,-7" style="fill:none;fill-rule:nonzero;stroke:black;stroke-width:1px;"/>
        </g>
        <g id="line20" serif:id="line" transform="matrix(6.12323e-17,1,1,-6.12323e-17,35.573,102.555)">
            <path d="M0,7L0,-7" style="fill:none;fill-rule:nonzero;stroke:black;stroke-width:1px;"/>
        </g>
        <g id="line21" serif:id="line" transform="matrix(6.12323e-17,1,1,-6.12323e-17,35.573,117.923)">
            <path d="M0,7L0,-7" style="fill:none;fill-rule:nonzero;stroke:black;stroke-width:1px;"/>
        </g>
        <g id="line22" serif:id="line" transform="matrix(6.12323e-17,1,1,-6.12323e-17,35.573,133.29)">
            <path d="M0,7L0,-7" style="fill:none;fill-rule:nonzero;stroke:black;stroke-width:1px;"/>
        </g>
        <g id="line23" serif:id="line" transform="matrix(6.12323e-17,1,1,-6.12323e-17,35.573,209.402)">
            <path d="M0,7L0,-7" style="fill:none;fill-rule:nonzero;stroke:black;stroke-width:1px;"/>
        </g>
        <g id="line24" serif:id="line" transform="matrix(6.12323e-17,1,1,-6.12323e-17,35.573,224.77)">
            <path d="M0,7L0,-7" style="fill:none;fill-rule:nonzero;stroke:black;stroke-width:1px;"/>
        </g>
        <g id="line25" serif:id="line" transform="matrix(6.12323e-17,1,1,-6.12323e-17,35.573,240.137)">
            <path d="M0,7L0,-7" style="fill:none;fill-rule:nonzero;stroke:black;stroke-width:1px;"/>
        </g>
        <g id="line26" serif:id="line" transform="matrix(6.12323e-17,1,1,-6.12323e-17,35.573,255.505)">
            <path d="M0,7L0,-7" style="fill:none;fill-rule:nonzero;stroke:black;stroke-width:1px;"/>
        </g>
        <g id="line27" serif:id="line" transform="matrix(6.12323e-17,1,1,-6.12323e-17,35.573,270.872)">
            <path d="M0,7L0,-7" style="fill:none;fill-rule:nonzero;stroke:black;stroke-width:1px;"/>
        </g>
        <g id="line28" serif:id="line" transform="matrix(6.12323e-17,1,1,-6.12323e-17,35.573,286.24)">
            <path d="M0,7L0,-7" style="fill:none;fill-rule:nonzero;stroke:black;stroke-width:1px;"/>
        </g>
    </g>
</svg>
