<?xml version="1.0" encoding="UTF-8" standalone="no"?>
<!DOCTYPE svg PUBLIC "-//W3C//DTD SVG 1.1//EN" "http://www.w3.org/Graphics/SVG/1.1/DTD/svg11.dtd">
<svg width="100%" height="100%" viewBox="0 0 421 421" version="1.1" xmlns="http://www.w3.org/2000/svg" xmlns:xlink="http://www.w3.org/1999/xlink" xml:space="preserve" xmlns:serif="http://www.serif.com/" style="fill-rule:evenodd;clip-rule:evenodd;stroke-linecap:round;stroke-miterlimit:10;">
    <g id="line">
        <path d="M0,7L0,-7" style="fill:none;fill-rule:nonzero;stroke:black;stroke-width:1px;"/>
    </g>
    <rect x="298.8" y="195.6" width="57.2" height="50.4" style="fill:none;stroke:black;stroke-width:1px;stroke-linejoin:round;stroke-miterlimit:4;"/>
    <g id="label_5_">
    </g>
    <g transform="matrix(1,0,0,1,316.901,215.49)">
        <g id="label_6_">
            <text x="0px" y="0px" style="font-family:'ArialMT', 'Arial', sans-serif;font-size:3.5px;">TCS34725</text>
        </g>
    </g>
    <g transform="matrix(1,0,0,1,321.476,218.99)">
        <g id="label_7_">
            <text x="0px" y="0px" style="font-family:'ArialMT', 'Arial', sans-serif;font-size:3.5px;">RGB</text>
        </g>
    </g>
    <g transform="matrix(1,0,0,1,321.086,222.49)">
        <g id="label_8_">
            <text x="0px" y="0px" style="font-family:'ArialMT', 'Arial', sans-serif;font-size:3.5px;">Color</text>
        </g>
    </g>
    <g transform="matrix(1,0,0,1,319.723,225.99)">
        <g id="label_9_">
            <text x="0px" y="0px" style="font-family:'ArialMT', 'Arial', sans-serif;font-size:3.5px;">Sensor</text>
        </g>
    </g>
    <path d="M370,210L355.9,210" style="fill:none;fill-rule:nonzero;stroke:black;stroke-width:1px;stroke-linejoin:round;stroke-miterlimit:4;"/>
    <g transform="matrix(1,0,0,1,339.509,210.689)">
        <g id="label14">
            <text x="0px" y="0px" style="font-family:'ArialMT', 'Arial', sans-serif;font-size:3.5px;">LED_EN</text>
        </g>
    </g>
    <path d="M370,217.2L355.9,217.2" style="fill:none;fill-rule:nonzero;stroke:black;stroke-width:1px;stroke-linejoin:round;stroke-miterlimit:4;"/>
    <g transform="matrix(1,0,0,1,347.509,217.889)">
        <g id="label13">
            <text x="0px" y="0px" style="font-family:'ArialMT', 'Arial', sans-serif;font-size:3.5px;">INT</text>
        </g>
    </g>
    <path d="M298.7,210L284.3,210" style="fill:none;fill-rule:nonzero;stroke:black;stroke-width:1px;stroke-linejoin:round;stroke-miterlimit:4;"/>
    <path d="M298.7,217.2L284.3,217.2" style="fill:none;fill-rule:nonzero;stroke:black;stroke-width:1px;stroke-linejoin:round;stroke-miterlimit:4;"/>
    <path d="M327.1,181.5L327.1,195.6" style="fill:none;fill-rule:nonzero;stroke:black;stroke-width:1px;stroke-linejoin:round;stroke-miterlimit:4;"/>
    <path d="M319.9,181.5L319.9,195.6" style="fill:none;fill-rule:nonzero;stroke:black;stroke-width:1px;stroke-linejoin:round;stroke-miterlimit:4;"/>
    <path d="M327.1,246L327.1,260" style="fill:none;fill-rule:nonzero;stroke:black;stroke-width:1px;stroke-linejoin:round;stroke-miterlimit:4;"/>
    <g transform="matrix(1,0,0,1,300.123,211.087)">
        <g id="label10_1_">
            <text x="0px" y="0px" style="font-family:'ArialMT', 'Arial', sans-serif;font-size:3.5px;">SDA</text>
        </g>
    </g>
    <g transform="matrix(1,0,0,1,300.511,218.287)">
        <g id="label9_1_">
            <text x="0px" y="0px" style="font-family:'ArialMT', 'Arial', sans-serif;font-size:3.5px;">SCL</text>
        </g>
    </g>
    <g transform="matrix(7.04481e-16,-1,1,7.04481e-16,328.316,203.423)">
        <g>
            <g>
                <g>
                    <g>
                        <g>
                            <g>
                                <g>
                                    <g>
                                        <g>
                                            <g>
                                                <text id="label5_9_" x="0px" y="0px" style="font-family:'ArialMT', 'Arial', sans-serif;font-size:3.5px;">VIN</text>
                                            </g>
                                        </g>
                                    </g>
                                </g>
                            </g>
                        </g>
                    </g>
                </g>
            </g>
        </g>
    </g>
    <g transform="matrix(7.04481e-16,-1,1,7.04481e-16,321.114,204.788)">
        <g>
            <g>
                <g>
                    <g>
                        <g>
                            <g>
                                <g>
                                    <g>
                                        <g>
                                            <g>
                                                <text id="label6_9_" x="0px" y="0px" style="font-family:'ArialMT', 'Arial', sans-serif;font-size:3.5px;">3.3V</text>
                                            </g>
                                        </g>
                                    </g>
                                </g>
                            </g>
                        </g>
                    </g>
                </g>
            </g>
        </g>
    </g>
    <g transform="matrix(7.04481e-16,-1,1,7.04481e-16,328.316,244.788)">
        <g>
            <g>
                <g>
                    <g>
                        <g>
                            <g>
                                <g>
                                    <g>
                                        <g>
                                            <g>
                                                <text id="label7_9_" x="0px" y="0px" style="font-family:'ArialMT', 'Arial', sans-serif;font-size:3.5px;">GND</text>
                                            </g>
                                        </g>
                                    </g>
                                </g>
                            </g>
                        </g>
                    </g>
                </g>
            </g>
        </g>
    </g>
    <g id="connector44terminal" transform="matrix(1,0,0,1,0,0.481771)">
        <rect x="211.7" y="165.7" width="1.6" height="1.6" style="fill:none;"/>
    </g>
    <g id="connector45terminal" transform="matrix(1,0,0,1,0,0.481771)">
        <rect x="211.7" y="193.8" width="1.6" height="1.6" style="fill:none;"/>
    </g>
    <g id="connector42terminal" transform="matrix(1,0,0,1,0,0.481771)">
        <rect x="211.7" y="179.8" width="1.6" height="1.6" style="fill:none;"/>
    </g>
    <g transform="matrix(1,0,0,1,385.418,179.097)">
        <g>
            <g id="schematic_3_">
                <path id="connector0pin" d="M-58.3,95.6L-58.3,88.4" style="fill:none;fill-rule:nonzero;stroke:black;stroke-width:1px;stroke-linejoin:round;stroke-miterlimit:4;"/>
                <path id="path4098" d="M-65,95.7L-51.6,95.7" style="fill:none;fill-rule:nonzero;stroke:black;stroke-width:1px;stroke-linejoin:round;stroke-miterlimit:4;"/>
                <path id="path4100" d="M-62.8,98.5L-53.9,98.5" style="fill:none;fill-rule:nonzero;stroke:black;stroke-width:1px;stroke-linejoin:round;stroke-miterlimit:4;"/>
                <path id="path4102" d="M-56.1,101.2L-60.6,101.2" style="fill:none;fill-rule:nonzero;stroke:black;stroke-width:1px;stroke-linejoin:round;stroke-miterlimit:4;"/>
            </g>
        </g>
    </g>
    <g transform="matrix(1,0,0,1,131.759,558.544)">
        <g>
            <g id="schematic_4_">
                <path id="connector0pin_1_" d="M-11.6,-239.5L-11.6,-246.7" style="fill:none;fill-rule:nonzero;stroke:black;stroke-width:1px;stroke-linejoin:round;stroke-miterlimit:4;"/>
                <path id="path4098_1_" d="M-18.3,-239.4L-4.9,-239.4" style="fill:none;fill-rule:nonzero;stroke:black;stroke-width:1px;stroke-linejoin:round;stroke-miterlimit:4;"/>
                <path id="path4100_1_" d="M-16.1,-236.6L-7.2,-236.6" style="fill:none;fill-rule:nonzero;stroke:black;stroke-width:1px;stroke-linejoin:round;stroke-miterlimit:4;"/>
                <path id="path4102_1_" d="M-9.4,-233.9L-13.9,-233.9" style="fill:none;fill-rule:nonzero;stroke:black;stroke-width:1px;stroke-linejoin:round;stroke-miterlimit:4;"/>
            </g>
        </g>
    </g>
    <path id="connector0pin_2_" d="M327.1,34.8L327.1,42" style="fill:none;fill-rule:nonzero;stroke:black;stroke-width:1px;stroke-linejoin:round;stroke-miterlimit:4;"/>
    <path d="M320.4,34.6L333.9,34.6" style="fill:none;fill-rule:nonzero;stroke:black;stroke-width:1px;stroke-linejoin:round;stroke-miterlimit:4;"/>
    <g transform="matrix(1,0,0,1,321.428,33.0004)">
        <g id="label_11_">
            <text x="0px" y="0px" style="font-family:'ArialMT', 'Arial', sans-serif;font-size:5.24px;">3.3V</text>
        </g>
    </g>
    <g>
        <path d="M212.1,209.9L233.5,210" style="fill:none;fill-rule:nonzero;stroke:black;stroke-width:1px;stroke-linejoin:round;stroke-miterlimit:4;"/>
    </g>
    <g>
        <path d="M269.5,194.6L269.5,217.2" style="fill:none;fill-rule:nonzero;stroke:black;stroke-width:1px;stroke-linejoin:round;stroke-miterlimit:4;"/>
    </g>
    <g>
        <path d="M233.5,210L283.9,210" style="fill:none;fill-rule:nonzero;stroke:black;stroke-width:1px;stroke-linejoin:round;stroke-miterlimit:4;"/>
    </g>
    <g>
        <path d="M269.5,217.2L283.9,217.2" style="fill:none;fill-rule:nonzero;stroke:black;stroke-width:1px;stroke-linejoin:round;stroke-miterlimit:4;"/>
    </g>
    <g>
        <path d="M391.9,210L370.3,210" style="fill:none;fill-rule:nonzero;stroke:black;stroke-width:1px;stroke-linejoin:round;stroke-miterlimit:4;"/>
    </g>
    <g>
        <path d="M391.9,260.4L391.9,210" style="fill:none;fill-rule:nonzero;stroke:black;stroke-width:1px;stroke-linejoin:round;stroke-miterlimit:4;"/>
    </g>
    <g>
        <path d="M327.1,260.4L391.9,260.4" style="fill:none;fill-rule:nonzero;stroke:black;stroke-width:1px;stroke-linejoin:round;stroke-miterlimit:4;"/>
    </g>
    <circle cx="327.1" cy="260.4" r="1.4"/>
    <g>
        <path d="M327.1,260.4L327.1,267.6" style="fill:none;fill-rule:nonzero;stroke:black;stroke-width:1px;stroke-linejoin:round;stroke-miterlimit:4;"/>
    </g>
    <circle cx="327.1" cy="260.4" r="1.4"/>
    <g>
        <path d="M327.1,181.5L327.1,42" style="fill:none;fill-rule:nonzero;stroke:black;stroke-width:1px;stroke-linejoin:round;stroke-miterlimit:4;"/>
    </g>
    <circle cx="327.1" cy="42" r="1.4"/>
    <g>
        <path d="M327.1,42.1L86.9,42.1" style="fill:none;fill-rule:nonzero;stroke:black;stroke-width:1px;stroke-linejoin:round;stroke-miterlimit:4;"/>
    </g>
    <circle cx="327.1" cy="42" r="1.4"/>
    <g>
        <g id="line1" serif:id="line" transform="matrix(1,0,0,-1,140.846,61.543)">
            <path d="M0,7L0,-7" style="fill:none;fill-rule:nonzero;stroke:black;stroke-width:1px;"/>
        </g>
        <rect id="rect11" x="43.5" y="68.3" width="154.2" height="229.9" style="fill:none;stroke:black;stroke-width:1px;stroke-linejoin:round;stroke-miterlimit:4;"/>
        <g id="label_10_" transform="matrix(1,0,0,1,100.151,176.377)">
            <text x="0px" y="0px" style="font-family:'ArialMT', 'Arial', sans-serif;font-size:11.866px;">Arduino</text>
        </g>
        <g id="text14" transform="matrix(1,0,0,1,99.4944,190.392)">
            <text x="0px" y="0px" style="font-family:'ArialMT', 'Arial', sans-serif;font-size:9.493px;">MKR Zero</text>
        </g>
        <g transform="matrix(1,0,0,1,178.847,150.558)">
            <g id="label46">
                <text x="0px" y="0px" style="font-family:'ArialMT', 'Arial', sans-serif;font-size:5.24px;">Reset</text>
            </g>
        </g>
        <g transform="matrix(1,0,0,1,46.9993,89.2025)">
            <g id="label54">
                <text x="0px" y="0px" style="font-family:'ArialMT', 'Arial', sans-serif;font-size:5.24px;">AREF</text>
            </g>
        </g>
        <g transform="matrix(1,0,0,1,46.9914,104.541)">
            <g id="label55">
                <text x="0px" y="0px" style="font-family:'ArialMT', 'Arial', sans-serif;font-size:5.24px;">DAC0/A0</text>
            </g>
        </g>
        <g transform="matrix(1,0,0,1,46.9993,119.88)">
            <g id="label56">
                <text x="0px" y="0px" style="font-family:'ArialMT', 'Arial', sans-serif;font-size:5.24px;">A1</text>
            </g>
        </g>
        <g transform="matrix(1,0,0,1,46.9993,135.219)">
            <g id="label57">
                <text x="0px" y="0px" style="font-family:'ArialMT', 'Arial', sans-serif;font-size:5.24px;">A2</text>
            </g>
        </g>
        <g transform="matrix(1,0,0,1,46.9993,150.558)">
            <g id="label58">
                <text x="0px" y="0px" style="font-family:'ArialMT', 'Arial', sans-serif;font-size:5.24px;">A3</text>
            </g>
        </g>
        <g transform="matrix(1,0,0,1,46.9993,165.897)">
            <g id="label59">
                <text x="0px" y="0px" style="font-family:'ArialMT', 'Arial', sans-serif;font-size:5.24px;">A4</text>
            </g>
        </g>
        <g transform="matrix(1,0,0,1,46.9993,181.235)">
            <g id="label60">
                <text x="0px" y="0px" style="font-family:'ArialMT', 'Arial', sans-serif;font-size:5.24px;">A5</text>
            </g>
        </g>
        <g transform="matrix(1,0,0,1,46.9993,196.574)">
            <g id="label61">
                <text x="0px" y="0px" style="font-family:'ArialMT', 'Arial', sans-serif;font-size:5.24px;">A6</text>
            </g>
        </g>
        <g transform="matrix(1,0,0,1,174.189,181.236)">
            <g id="label35">
                <text x="0px" y="0px" style="font-family:'ArialMT', 'Arial', sans-serif;font-size:5.24px;">D13/RX</text>
            </g>
        </g>
        <g transform="matrix(1,0,0,1,174.772,165.897)">
            <g id="label34">
                <text x="0px" y="0px" style="font-family:'ArialMT', 'Arial', sans-serif;font-size:5.24px;">D14/TX</text>
            </g>
        </g>
        <g transform="matrix(1,0,0,1,171.464,196.575)">
            <g id="label33">
                <text x="0px" y="0px" style="font-family:'ArialMT', 'Arial', sans-serif;font-size:5.24px;">D12/SCL</text>
            </g>
        </g>
        <g transform="matrix(1,0,0,1,171.072,211.913)">
            <g id="label32">
                <text x="0px" y="0px" style="font-family:'ArialMT', 'Arial', sans-serif;font-size:5.24px;">D1<tspan x="6.31px 9.224px " y="0px 0px ">1/</tspan>SDA</text>
            </g>
        </g>
        <g transform="matrix(1,0,0,1,173.076,227.252)">
            <g id="label31">
                <text x="0px" y="0px" style="font-family:'ArialMT', 'Arial', sans-serif;font-size:5.24px;">D10/SDI</text>
            </g>
        </g>
        <g transform="matrix(1,0,0,1,173.608,242.591)">
            <g id="label30">
                <text x="0px" y="0px" style="font-family:'ArialMT', 'Arial', sans-serif;font-size:5.24px;">D9/SCK</text>
            </g>
        </g>
        <g transform="matrix(1,0,0,1,173.99,257.93)">
            <g id="label29">
                <text x="0px" y="0px" style="font-family:'ArialMT', 'Arial', sans-serif;font-size:5.24px;">D8/SDO</text>
            </g>
        </g>
        <g id="label28" transform="matrix(1,0,0,1,185.838,273.269)">
            <text x="0px" y="0px" style="font-family:'ArialMT', 'Arial', sans-serif;font-size:5.24px;">D7</text>
        </g>
        <g id="label27" transform="matrix(1,0,0,1,185.838,288.608)">
            <text x="0px" y="0px" style="font-family:'ArialMT', 'Arial', sans-serif;font-size:5.24px;">D6</text>
        </g>
        <g transform="matrix(1,0,0,1,46.9914,288.608)">
            <g id="label26">
                <text x="0px" y="0px" style="font-family:'ArialMT', 'Arial', sans-serif;font-size:5.24px;">D5 PWM</text>
            </g>
        </g>
        <g transform="matrix(1,0,0,1,46.9913,273.269)">
            <g id="label25">
                <text x="0px" y="0px" style="font-family:'ArialMT', 'Arial', sans-serif;font-size:5.24px;">D4 PWM</text>
            </g>
        </g>
        <g id="label24" transform="matrix(1,0,0,1,46.9914,257.93)">
            <text x="0px" y="0px" style="font-family:'ArialMT', 'Arial', sans-serif;font-size:5.24px;">D3 PWM</text>
        </g>
        <g id="label51" transform="matrix(1,0,0,1,46.9913,242.591)">
            <text x="0px" y="0px" style="font-family:'ArialMT', 'Arial', sans-serif;font-size:5.24px;">D2 PWM</text>
        </g>
        <g id="label52" transform="matrix(1,0,0,1,46.9914,227.252)">
            <text x="0px" y="0px" style="font-family:'ArialMT', 'Arial', sans-serif;font-size:5.24px;">D1 PWM</text>
        </g>
        <g id="label52_1_" transform="matrix(1,0,0,1,46.9914,211.913)">
            <text x="0px" y="0px" style="font-family:'ArialMT', 'Arial', sans-serif;font-size:5.24px;">D0 PWM</text>
        </g>
        <g transform="matrix(1,0,0,1,79.6487,75.8564)">
            <g id="label22">
                <text x="0px" y="0px" style="font-family:'ArialMT', 'Arial', sans-serif;font-size:5.24px;">VCC</text>
            </g>
        </g>
        <g id="connector37terminal" transform="matrix(1,0,0,1,0.545898,0)">
            <path d="M112.8,53.5L114.4,53.5L112.8,53.5Z" style="fill:none;fill-rule:nonzero;"/>
        </g>
        <g transform="matrix(1,0,0,1,109.226,75.8564)">
            <g id="label37">
                <text x="0px" y="0px" style="font-family:'ArialMT', 'Arial', sans-serif;font-size:5.24px;">VIN</text>
            </g>
        </g>
        <g id="connector63terminal" transform="matrix(1,0,0,1,0.545898,0)">
            <path d="M140.8,53.5L142.4,53.5L140.8,53.5Z" style="fill:none;fill-rule:nonzero;"/>
        </g>
        <g transform="matrix(1,0,0,1,138.419,75.8564)">
            <g id="label63">
                <text x="0px" y="0px" style="font-family:'ArialMT', 'Arial', sans-serif;font-size:5.24px;">5V</text>
            </g>
        </g>
        <g transform="matrix(1,0,0,1,113.323,292.661)">
            <g id="label23">
                <text x="0px" y="0px" style="font-family:'ArialMT', 'Arial', sans-serif;font-size:5.24px;">GND</text>
            </g>
        </g>
        <g id="connector43terminal" transform="matrix(1,0,0,1,0.545898,0)">
            <path d="M84.8,53.5L86.4,53.5L84.8,53.5Z" style="fill:none;fill-rule:nonzero;"/>
        </g>
        <g id="connector50terminal" transform="matrix(1,0,0,1,0.545898,0)">
            <path d="M84.8,53.5L86.4,53.5L84.8,53.5Z" style="fill:none;fill-rule:nonzero;"/>
        </g>
        <g id="line2" serif:id="line" transform="matrix(1,0,0,-1,120.101,305.675)">
            <path d="M0,7L0,-7" style="fill:none;fill-rule:nonzero;stroke:black;stroke-width:1px;"/>
        </g>
        <g id="line3" serif:id="line" transform="matrix(1,0,0,-1,114.93,61.543)">
            <path d="M0,7L0,-7" style="fill:none;fill-rule:nonzero;stroke:black;stroke-width:1px;"/>
        </g>
        <g id="line4" serif:id="line" transform="matrix(1,0,0,-1,86.9004,61.3339)">
            <path d="M0,7L0,-7" style="fill:none;fill-rule:nonzero;stroke:black;stroke-width:1px;"/>
        </g>
        <g id="line5" serif:id="line" transform="matrix(6.12323e-17,1,1,-6.12323e-17,204.299,148.442)">
            <path d="M0,7L0,-7" style="fill:none;fill-rule:nonzero;stroke:black;stroke-width:1px;"/>
        </g>
        <g id="line6" serif:id="line" transform="matrix(6.12323e-17,1,1,-6.12323e-17,204.799,163.81)">
            <path d="M0,7L0,-7" style="fill:none;fill-rule:nonzero;stroke:black;stroke-width:1px;"/>
        </g>
        <g id="line7" serif:id="line" transform="matrix(6.12323e-17,1,1,-6.12323e-17,204.799,179.177)">
            <path d="M0,7L0,-7" style="fill:none;fill-rule:nonzero;stroke:black;stroke-width:1px;"/>
        </g>
        <g id="line8" serif:id="line" transform="matrix(6.12323e-17,1,1,-6.12323e-17,204.799,194.545)">
            <path d="M0,7L0,-7" style="fill:none;fill-rule:nonzero;stroke:black;stroke-width:1px;"/>
        </g>
        <g id="line9" serif:id="line" transform="matrix(6.12323e-17,1,1,-6.12323e-17,204.799,209.912)">
            <path d="M0,7L0,-7" style="fill:none;fill-rule:nonzero;stroke:black;stroke-width:1px;"/>
        </g>
        <g id="line10" serif:id="line" transform="matrix(6.12323e-17,1,1,-6.12323e-17,204.799,225.28)">
            <path d="M0,7L0,-7" style="fill:none;fill-rule:nonzero;stroke:black;stroke-width:1px;"/>
        </g>
        <g id="line11" serif:id="line" transform="matrix(6.12323e-17,1,1,-6.12323e-17,204.799,240.647)">
            <path d="M0,7L0,-7" style="fill:none;fill-rule:nonzero;stroke:black;stroke-width:1px;"/>
        </g>
        <g id="line12" serif:id="line" transform="matrix(6.12323e-17,1,1,-6.12323e-17,204.799,256.015)">
            <path d="M0,7L0,-7" style="fill:none;fill-rule:nonzero;stroke:black;stroke-width:1px;"/>
        </g>
        <g id="line13" serif:id="line" transform="matrix(6.12323e-17,1,1,-6.12323e-17,204.799,271.382)">
            <path d="M0,7L0,-7" style="fill:none;fill-rule:nonzero;stroke:black;stroke-width:1px;"/>
        </g>
        <g id="line14" serif:id="line" transform="matrix(6.12323e-17,1,1,-6.12323e-17,204.799,286.749)">
            <path d="M0,7L0,-7" style="fill:none;fill-rule:nonzero;stroke:black;stroke-width:1px;"/>
        </g>
        <g id="line15" serif:id="line" transform="matrix(6.12323e-17,1,1,-6.12323e-17,35,147.961)">
            <path d="M0,7L0,-7" style="fill:none;fill-rule:nonzero;stroke:black;stroke-width:1px;"/>
        </g>
        <g id="line16" serif:id="line" transform="matrix(6.12323e-17,1,1,-6.12323e-17,35.5,163.328)">
            <path d="M0,7L0,-7" style="fill:none;fill-rule:nonzero;stroke:black;stroke-width:1px;"/>
        </g>
        <g id="line17" serif:id="line" transform="matrix(6.12323e-17,1,1,-6.12323e-17,35.5,178.696)">
            <path d="M0,7L0,-7" style="fill:none;fill-rule:nonzero;stroke:black;stroke-width:1px;"/>
        </g>
        <g id="line18" serif:id="line" transform="matrix(6.12323e-17,1,1,-6.12323e-17,35.5,194.063)">
            <path d="M0,7L0,-7" style="fill:none;fill-rule:nonzero;stroke:black;stroke-width:1px;"/>
        </g>
        <g id="line19" serif:id="line" transform="matrix(6.12323e-17,1,1,-6.12323e-17,35,87.216)">
            <path d="M0,7L0,-7" style="fill:none;fill-rule:nonzero;stroke:black;stroke-width:1px;"/>
        </g>
        <g id="line20" serif:id="line" transform="matrix(6.12323e-17,1,1,-6.12323e-17,35.5,102.584)">
            <path d="M0,7L0,-7" style="fill:none;fill-rule:nonzero;stroke:black;stroke-width:1px;"/>
        </g>
        <g id="line21" serif:id="line" transform="matrix(6.12323e-17,1,1,-6.12323e-17,35.5,117.951)">
            <path d="M0,7L0,-7" style="fill:none;fill-rule:nonzero;stroke:black;stroke-width:1px;"/>
        </g>
        <g id="line22" serif:id="line" transform="matrix(6.12323e-17,1,1,-6.12323e-17,35.5,133.318)">
            <path d="M0,7L0,-7" style="fill:none;fill-rule:nonzero;stroke:black;stroke-width:1px;"/>
        </g>
        <g id="line23" serif:id="line" transform="matrix(6.12323e-17,1,1,-6.12323e-17,35.5,209.43)">
            <path d="M0,7L0,-7" style="fill:none;fill-rule:nonzero;stroke:black;stroke-width:1px;"/>
        </g>
        <g id="line24" serif:id="line" transform="matrix(6.12323e-17,1,1,-6.12323e-17,35.5,224.798)">
            <path d="M0,7L0,-7" style="fill:none;fill-rule:nonzero;stroke:black;stroke-width:1px;"/>
        </g>
        <g id="line25" serif:id="line" transform="matrix(6.12323e-17,1,1,-6.12323e-17,35.5,240.165)">
            <path d="M0,7L0,-7" style="fill:none;fill-rule:nonzero;stroke:black;stroke-width:1px;"/>
        </g>
        <g id="line26" serif:id="line" transform="matrix(6.12323e-17,1,1,-6.12323e-17,35.5,255.533)">
            <path d="M0,7L0,-7" style="fill:none;fill-rule:nonzero;stroke:black;stroke-width:1px;"/>
        </g>
        <g id="line27" serif:id="line" transform="matrix(6.12323e-17,1,1,-6.12323e-17,35.5,270.9)">
            <path d="M0,7L0,-7" style="fill:none;fill-rule:nonzero;stroke:black;stroke-width:1px;"/>
        </g>
        <g id="line28" serif:id="line" transform="matrix(6.12323e-17,1,1,-6.12323e-17,35.5,286.268)">
            <path d="M0,7L0,-7" style="fill:none;fill-rule:nonzero;stroke:black;stroke-width:1px;"/>
        </g>
    </g>
    <path d="M269.5,194.6L211.7,194.6" style="fill:none;fill-rule:nonzero;stroke:black;stroke-width:1px;stroke-linejoin:round;stroke-miterlimit:4;"/>
    <path d="M86.9,53.8L86.9,42.1" style="fill:none;fill-rule:nonzero;stroke:black;stroke-width:1px;stroke-linejoin:round;stroke-miterlimit:4;"/>
</svg>
